<?xml version="1.0" encoding="UTF-8" standalone="no"?>
<!-- Created with Inkscape (http://www.inkscape.org/) -->

<svg
   xmlns:dc="http://purl.org/dc/elements/1.1/"
   xmlns:cc="http://creativecommons.org/ns#"
   xmlns:rdf="http://www.w3.org/1999/02/22-rdf-syntax-ns#"
   xmlns:svg="http://www.w3.org/2000/svg"
   xmlns="http://www.w3.org/2000/svg"
   xmlns:sodipodi="http://sodipodi.sourceforge.net/DTD/sodipodi-0.dtd"
   xmlns:inkscape="http://www.inkscape.org/namespaces/inkscape"
   width="210mm"
   height="297mm"
   viewBox="0 0 210 297"
   version="1.1"
   id="svg8"
   inkscape:version="0.92.3 (2405546, 2018-03-11)"
   sodipodi:docname="mikuy.svg">
  <defs
     id="defs2" />
  <sodipodi:namedview
     id="base"
     pagecolor="#ffffff"
     bordercolor="#666666"
     borderopacity="1.0"
     inkscape:pageopacity="0.0"
     inkscape:pageshadow="2"
     inkscape:zoom="0.49497475"
     inkscape:cx="136.73514"
     inkscape:cy="481.64363"
     inkscape:document-units="mm"
     inkscape:current-layer="layer1"
     showgrid="false"
     inkscape:window-width="1366"
     inkscape:window-height="703"
     inkscape:window-x="0"
     inkscape:window-y="0"
     inkscape:window-maximized="1" />
  <metadata
     id="metadata5">
    <rdf:RDF>
      <cc:Work
         rdf:about="">
        <dc:format>image/svg+xml</dc:format>
        <dc:type
           rdf:resource="http://purl.org/dc/dcmitype/StillImage" />
        <dc:title />
      </cc:Work>
    </rdf:RDF>
  </metadata>
  <g
     inkscape:label="Layer 1"
     inkscape:groupmode="layer"
     id="layer1">
    <path
       d="m 138.30872,96.337509 a 4,4 0 0 1 -4.95946,-2.274336 4,4 0 0 1 1.92301,-5.105965 4,4 0 0 1 5.22762,1.562323 4,4 0 0 1 -1.19403,5.323827"
       sodipodi:open="true"
       sodipodi:end="0.97113785"
       sodipodi:start="1.2502589"
       sodipodi:ry="4"
       sodipodi:rx="4"
       sodipodi:cy="92.541245"
       sodipodi:cx="137.04842"
       sodipodi:type="arc"
       id="path846"
       style="opacity:1;fill:#ff2500;fill-opacity:1;fill-rule:nonzero;stroke:none;stroke-width:0.15449575;stroke-linecap:butt;stroke-miterlimit:4;stroke-dasharray:none;stroke-dashoffset:0;stroke-opacity:1" />
    <path
       style="fill:#000000;stroke-width:0.05065101"
       d="m 163.82284,99.22585 c -1.83586,-3.18079 -3.35638,-6.23546 -3.96403,-7.96354 -0.42436,-1.20684 -0.46799,-1.42196 -0.46741,-2.30462 4e-4,-0.6673 0.018,-0.84574 0.11703,-1.18938 0.26163,-0.9078 0.70208,-1.64625 1.37518,-2.30554 0.71111,-0.69652 1.65653,-1.18235 2.63533,-1.35423 0.93803,-0.16472 2.07028,-0.0166 2.96108,0.38727 1.32574,0.60112 2.35988,1.82468 2.7651,3.27158 0.17527,0.62585 0.19538,1.55143 0.0476,2.19163 -0.42796,1.8541 -1.93611,5.04772 -4.4596,9.44354 -0.23529,0.40986 -0.43919,0.7451 -0.45312,0.74497 -0.0139,-1e-4 -0.26466,-0.41488 -0.55717,-0.92168 z m 1.1903,-7.204 c 0.9054,-0.19009 1.73395,-0.85619 2.12205,-1.70601 0.13782,-0.30176 0.28388,-0.94564 0.28388,-1.2514 0,-0.35057 -0.14656,-0.92978 -0.33034,-1.30552 -0.52022,-1.06359 -1.53333,-1.69908 -2.70872,-1.69908 -1.4481,0 -2.66,0.99022 -2.96313,2.4211 -0.10041,0.47394 -0.0941,0.77806 0.0267,1.282 0.14389,0.60022 0.35693,0.97576 0.81061,1.4289 0.75508,0.75416 1.7272,1.04663 2.7589,0.83001 z"
       id="path925"
       inkscape:connector-curvature="0" />
    <g
       id="g1029"
       inkscape:export-xdpi="96"
       inkscape:export-ydpi="96">
      <g
         id="g1017">
        <g
           id="g1006">
          <rect
             y="159.3562"
             x="49.979401"
             height="36.34866"
             width="36.615929"
             id="rect834"
             style="opacity:1;fill:#ff5555;fill-opacity:1;fill-rule:nonzero;stroke:none;stroke-width:0.58666027;stroke-linecap:butt;stroke-miterlimit:4;stroke-dasharray:none;stroke-dashoffset:0;stroke-opacity:1" />
          <text
             transform="scale(0.88500408,1.1299383)"
             id="text838"
             y="172.73775"
             x="99.882477"
             style="font-style:normal;font-weight:normal;font-size:31.52231598px;line-height:1.25;font-family:sans-serif;letter-spacing:0px;word-spacing:0px;fill:#000000;fill-opacity:1;stroke:none;stroke-width:0.32835743"
             xml:space="preserve"><tspan
               style="font-weight:bold;stroke-width:0.32835743"
               y="172.73775"
               x="99.882477"
               id="tspan836"
               sodipodi:role="line">ikuy!</tspan></text>
          <path
             d="m 162.27816,196.05905 a 4,4 0 0 1 -4.95946,-2.27433 4,4 0 0 1 1.92301,-5.10597 4,4 0 0 1 5.22762,1.56232 4,4 0 0 1 -1.19403,5.32383"
             sodipodi:open="true"
             sodipodi:end="0.97113785"
             sodipodi:start="1.2502589"
             sodipodi:ry="4"
             sodipodi:rx="4"
             sodipodi:cy="192.26279"
             sodipodi:cx="161.01785"
             sodipodi:type="arc"
             id="path846-6"
             style="opacity:1;fill:#ffffff;fill-opacity:1;fill-rule:nonzero;stroke:none;stroke-width:0.15449575;stroke-linecap:butt;stroke-miterlimit:4;stroke-dasharray:none;stroke-dashoffset:0;stroke-opacity:1" />
          <rect
             style="opacity:1;fill:#ffffff;fill-opacity:1;fill-rule:nonzero;stroke:none;stroke-width:0.5;stroke-linecap:butt;stroke-miterlimit:4;stroke-dasharray:none;stroke-dashoffset:0;stroke-opacity:1"
             id="rect942"
             width="6.0476193"
             height="6.8035712"
             x="90.525299"
             y="167.44865" />
          <path
             sodipodi:type="star"
             style="opacity:1;fill:#ffffff;fill-opacity:1;fill-rule:nonzero;stroke:none;stroke-width:0.5;stroke-linecap:butt;stroke-miterlimit:4;stroke-dasharray:none;stroke-dashoffset:0;stroke-opacity:1"
             id="path984"
             sodipodi:sides="3"
             sodipodi:cx="33.275055"
             sodipodi:cy="154.41171"
             sodipodi:r1="15.300866"
             sodipodi:r2="7.5860538"
             sodipodi:arg1="-0.54398732"
             sodipodi:arg2="0.50321023"
             inkscape:flatsided="true"
             inkscape:rounded="0"
             inkscape:randomized="0"
             d="M 46.367269,146.49272 33.586996,169.7094 19.8709,147.03302 Z"
             inkscape:transform-center-x="-0.012571679"
             inkscape:transform-center-y="3.2441353"
             transform="matrix(1.3860786,0.02061752,-0.03335312,0.85681653,27.212639,32.868938)" />
          <path
             inkscape:connector-curvature="0"
             id="path895"
             d="m 161.35803,197.89032 c 0.28558,0.0389 0.54648,-0.0268 0.76752,-0.19352 0.11809,-0.0891 0.1388,-0.11727 0.24491,-0.33369 0.10206,-0.20817 0.11596,-0.25468 0.11788,-0.38899 0.009,-0.67557 -0.63798,-1.14937 -1.27244,-0.93237 -0.0937,0.032 -0.22603,0.10301 -0.29413,0.15769 -0.10969,0.0881 -0.13703,0.12639 -0.23973,0.33585 -0.104,0.21211 -0.11593,0.25235 -0.11574,0.39212 2.3e-4,0.21306 0.0841,0.44938 0.21955,0.61809 0.0898,0.11197 0.14695,0.15825 0.28972,0.23493 0.10688,0.0569 0.2198,0.10109 0.28254,0.10979 z m -0.0566,-0.72659 c -0.12858,-0.14902 -0.12016,-0.33879 0.0205,-0.46199 0.20603,-0.18038 0.54135,-0.016 0.52492,0.25736 -0.0111,0.18412 -0.15428,0.30786 -0.3473,0.30065 -0.10522,-0.004 -0.12835,-0.0153 -0.19814,-0.0961 z m -5.00283,-1.75697 c 0.26635,0.041 0.56281,-0.0408 0.77866,-0.21507 0.1047,-0.0845 0.13709,-0.12902 0.22739,-0.31229 0.0956,-0.19394 0.10541,-0.23089 0.10779,-0.40021 0.008,-0.55995 -0.43326,-0.99359 -0.99139,-0.97531 -0.84305,0.0276 -1.23681,1.06624 -0.624,1.64588 0.13057,0.12349 0.34362,0.23263 0.50154,0.25704 z m -0.12451,-0.79463 c -0.0806,-0.13621 -0.029,-0.3292 0.11218,-0.41916 0.27807,-0.17722 0.59422,0.11582 0.44762,0.41481 -0.10812,0.22054 -0.43023,0.22306 -0.5598,0.004 z m 6.10429,1.44659 c 0.32075,0.0733 0.77686,-0.0399 1.01744,-0.25246 0.0871,-0.0769 0.66425,-0.79344 1.69318,-2.10191 0.8586,-1.09186 1.58792,-2.016 1.62075,-2.05367 0.081,-0.093 0.25905,-0.16933 0.40029,-0.17158 0.0912,-10e-4 0.17806,0.0243 0.39894,0.11853 0.25432,0.10909 0.29056,0.11773 0.36575,0.0947 0.20597,-0.0634 0.29511,-0.3221 0.16946,-0.49169 -0.0618,-0.0836 -0.50685,-0.30263 -0.68694,-0.33791 -0.32474,-0.0643 -0.71659,0.025 -0.96927,0.22113 -0.0658,0.0511 -0.22459,0.2251 -0.35291,0.38678 l -0.23333,0.29394 -3.18067,-1.55941 c -3.455,-1.69394 -3.27168,-1.61299 -3.43888,-1.53214 l -0.0793,0.0382 -0.65878,1.34366 c -0.71475,1.4578 -0.71796,1.4655 -0.69744,1.74325 0.011,0.15018 0.11593,0.43449 0.20312,0.55065 0.17976,0.2396 0.0734,0.18164 2.76092,1.49933 l 2.48555,1.21865 -0.0627,0.088 c -0.095,0.13339 -0.19169,0.20924 -0.32929,0.25828 -0.23311,0.0831 -0.0723,0.15208 -3.09074,-1.32782 -2.46908,-1.21057 -2.71818,-1.32824 -2.79124,-1.32286 -0.23282,0.0182 -0.36808,0.29405 -0.23984,0.48919 0.0404,0.0615 0.28851,0.1869 2.82227,1.42651 1.5457,0.75672 2.8201,1.3693 2.87344,1.38098 z m -3.89508,-4.06174 c -0.0723,-0.10362 -0.11173,-0.2508 -0.0939,-0.35065 0.009,-0.0519 0.23334,-0.5318 0.54829,-1.17417 l 0.53265,-1.08639 2.96085,1.45168 2.96085,1.45169 -0.0372,0.0446 c -0.0208,0.0243 -0.41713,0.52732 -0.88156,1.11726 -0.46445,0.58996 -0.85606,1.07998 -0.87028,1.08891 -0.0178,0.0113 -0.82568,-0.37832 -2.5486,-1.22728 -2.30146,-1.13507 -2.5269,-1.25006 -2.57153,-1.31493 z"
             style="fill:#ff8080;stroke-width:0.02507303" />
          <path
             inkscape:connector-curvature="0"
             id="path925-8"
             d="m 92.73551,173.33359 c -1.10152,-1.90848 -2.01383,-3.74128 -2.37843,-4.77813 -0.25461,-0.72411 -0.28079,-0.85318 -0.28044,-1.38278 2.4e-4,-0.40038 0.0108,-0.50744 0.0702,-0.71362 0.15698,-0.54469 0.42125,-0.98776 0.82511,-1.38334 0.42666,-0.41791 0.99392,-0.7094 1.5812,-0.81253 0.56283,-0.0988 1.24218,-0.01 1.77666,0.23235 0.79544,0.36068 1.41593,1.09482 1.65906,1.96296 0.10516,0.3755 0.11723,0.93086 0.0286,1.31498 -0.25677,1.11246 -1.16167,3.02864 -2.67577,5.66613 -0.14117,0.24592 -0.26351,0.44707 -0.27187,0.44699 -0.008,-6e-5 -0.15879,-0.24893 -0.3343,-0.55301 z m 0.71418,-4.32241 c 0.54324,-0.11406 1.04037,-0.51372 1.27323,-1.02361 0.0827,-0.18105 0.17033,-0.56739 0.17033,-0.75084 0,-0.21034 -0.0879,-0.55786 -0.19821,-0.78331 -0.31213,-0.63816 -0.91999,-1.01945 -1.62523,-1.01945 -0.86886,0 -1.596,0.59413 -1.77788,1.45266 -0.0602,0.28437 -0.0565,0.46683 0.0161,0.7692 0.0863,0.36013 0.21417,0.58546 0.48637,0.85735 0.45306,0.45249 1.03632,0.62797 1.65535,0.498 z"
             style="fill:#ff5555;stroke-width:0.03039067" />
        </g>
      </g>
    </g>
  </g>
</svg>
